<svg width="16" height="20" viewBox="0 0 16 20" fill="none" xmlns="http://www.w3.org/2000/svg">
<path d="M6.49997 14C6.49997 13.1716 7.17154 12.5 7.99997 12.5C8.82839 12.5 9.49997 13.1716 9.49997 14C9.49997 14.8284 8.82839 15.5 7.99997 15.5C7.17154 15.5 6.49997 14.8284 6.49997 14Z" fill="#272727"/>
<path fill-rule="evenodd" clip-rule="evenodd" d="M5.81046 2.00497C6.04282 1.91246 6.28522 1.8475 6.5327 1.81144C8.00597 1.59678 9.43263 2.42661 9.97442 3.81335L10.0494 4.00537C10.1424 4.2433 10.2087 4.4908 10.2472 4.74334L10.4638 6.16565L11.9467 5.9398L11.7301 4.51749C11.6749 4.15544 11.5799 3.80062 11.4466 3.45951L11.3716 3.26749C10.5758 1.23066 8.48034 0.0118162 6.31642 0.327118C5.95292 0.380083 5.59688 0.475483 5.2556 0.611365C3.22394 1.42026 2.01864 3.52354 2.3479 5.68538L2.37894 5.88919C2.43408 6.25123 2.52915 6.60605 2.66242 6.94716L3.31657 8.62149L2.93509 8.65194C1.85236 8.73838 0.968258 9.55228 0.792742 10.6242C0.426671 12.8598 0.426671 15.1401 0.792742 17.3758C0.968258 18.4477 1.85236 19.2616 2.93509 19.348L4.43122 19.4675C6.8066 19.6571 9.19333 19.6571 11.5687 19.4675L13.0648 19.348C14.1476 19.2616 15.0317 18.4477 15.2072 17.3758C15.5733 15.1401 15.5733 12.8598 15.2072 10.6242C15.0317 9.55228 14.1476 8.73838 13.0648 8.65194L11.5687 8.5325C9.34259 8.35478 7.1065 8.34362 4.87913 8.499L4.05957 6.4013C3.96662 6.16337 3.9003 5.91587 3.86184 5.66334L3.8308 5.45953C3.60663 3.98768 4.42724 2.55569 5.81046 2.00497ZM11.4493 10.0277C9.15341 9.84445 6.84652 9.84445 4.55059 10.0277L3.05446 10.1472C2.65953 10.1787 2.33705 10.4756 2.27303 10.8666C1.93324 12.9417 1.93324 15.0583 2.27303 17.1334C2.33705 17.5244 2.65953 17.8213 3.05446 17.8528L4.55059 17.9722C6.84652 18.1555 9.15341 18.1555 11.4493 17.9722L12.9455 17.8528C13.3404 17.8213 13.6629 17.5244 13.7269 17.1334C14.0667 15.0583 14.0667 12.9417 13.7269 10.8666C13.6629 10.4756 13.3404 10.1787 12.9455 10.1472L11.4493 10.0277Z" fill="#272727"/>
</svg>
