<svg width="19" height="18" viewBox="0 0 19 18" fill="none" xmlns="http://www.w3.org/2000/svg">
<path fill-rule="evenodd" clip-rule="evenodd" d="M2.84029 6.85635C4.6276 10.7482 7.80809 13.8424 11.7619 15.519L11.7743 15.5243L12.5382 15.8647C13.5108 16.2981 14.654 15.9903 15.2776 15.1272L16.552 13.3635C16.6298 13.2558 16.6098 13.106 16.5063 13.0225L14.2816 11.2277C14.171 11.1385 14.0084 11.1593 13.9237 11.2734L13.0579 12.4418C12.8476 12.7256 12.4678 12.8242 12.1461 12.6786C9.18968 11.3406 6.81397 8.96491 5.47604 6.00851C5.33043 5.68674 5.42902 5.30699 5.71278 5.09671L6.88115 4.23085C6.99532 4.14625 7.0161 3.98362 6.92688 3.87302L5.13184 1.64798C5.04841 1.54456 4.89866 1.52448 4.79093 1.60225L3.01764 2.88241C2.14885 3.5096 1.84289 4.66244 2.28635 5.63789L2.83969 6.85505C2.83989 6.85549 2.84009 6.85592 2.84029 6.85635ZM11.1699 16.8973C6.87392 15.0737 3.41856 11.7107 1.47651 7.48094L1.47534 7.4784L0.920841 6.25868C0.181741 4.63293 0.691669 2.71152 2.13965 1.66621L3.91294 0.38605C4.66706 -0.158356 5.71529 -0.0177515 6.29929 0.706142L8.09433 2.93119C8.71889 3.70536 8.57342 4.84375 7.77426 5.43599L7.10476 5.93215C8.23567 8.12654 10.0281 9.91892 12.2224 11.0498L12.7186 10.3803C13.3108 9.58117 14.4492 9.4357 15.2234 10.0603L17.4482 11.855C18.1723 12.4392 18.3127 13.4879 17.7678 14.242L16.4935 16.0057C15.4541 17.4442 13.5487 17.9572 11.9277 17.2349L11.1699 16.8973Z" fill="#272727"/>
</svg>
